<svg viewBox="0 0 256 256" xmlns="http://www.w3.org/2000/svg">
  <defs>
    <mask id="a">
      <circle cx="128" cy="128" r="128" fill="#fff"/>
      <path d="M176 147.2a22.4 22.4 0 0 1-44.8 0c0-12.544 7.45-18.929 13.435-24.06 5.726-4.907 8.965-7.992 8.965-14.34a25.6 25.6 0 0 0-51.2 0 6.4 6.4 0 0 1-12.8 0 38.4 38.4 0 0 1 76.8 0c0 12.544-7.45 18.929-13.435 24.06-5.726 4.907-8.965 7.992-8.965 14.34a9.6 9.6 0 0 0 19.2 0 6.4 6.4 0 0 1 12.8 0M128 38.4a70.48 70.48 0 0 0-70.4 70.4c0 26.796 9.964 36.404 17.971 44.124C81.858 158.986 86.4 163.366 86.4 176a41.6 41.6 0 0 0 73.686 26.479 6.4 6.4 0 1 0-9.869-8.152A28.8 28.8 0 0 1 99.2 176c0-18.073-7.833-25.627-14.744-32.29-7.229-6.97-14.056-13.553-14.056-34.91a57.6 57.6 0 0 1 115.2 0 6.4 6.4 0 0 0 12.8 0A70.48 70.48 0 0 0 128 38.4" stroke="#000" stroke-width="9.6" stroke-linejoin="round" stroke-linecap="round"/>
    </mask>
  </defs>
  <circle cx="128" cy="128" r="128" fill="#fff" mask="url(#a)"/>
</svg>
