<svg xmlns="http://www.w3.org/2000/svg" width="1024" height="1024" viewBox="0 0 1024 1024" fill="black" fill-rule="evenodd">

  <!-- 顶部小菱形/方块（保留原 path） -->
  <path d="M 765.0 174.5 L 758.5 171.0 L 728.5 138.0 L 762.0 101.5 L 770.0 103.5 L 800.5 138.0 L 798.5 143.0 L 765.0 174.5 Z"/>
  <path d="M 854.0 149.5 L 849.0 148.5 L 831.5 130.0 L 852.0 107.5 L 873.5 129.0 L 854.0 149.5 Z"/>
  <path d="M 643.0 178.5 L 620.5 158.0 L 616.5 149.0 L 640.0 123.5 L 646.0 122.5 L 670.5 146.0 L 671.5 153.0 L 649.0 176.5 L 643.0 178.5 Z"/>
  <path d="M 816.0 226.5 L 794.5 207.0 L 795.5 202.0 L 813.0 184.5 L 819.0 185.5 L 835.5 203.0 L 834.5 209.0 L 816.0 226.5 Z"/>
  <path d="M 701.0 233.5 L 680.5 215.0 L 680.5 210.0 L 699.0 191.5 L 705.0 193.5 L 720.5 210.0 L 720.5 215.0 L 701.0 233.5 Z"/>
  <path d="M 895.0 279.5 L 889.0 278.5 L 861.5 250.0 L 863.5 241.0 L 890.0 215.5 L 897.0 216.5 L 924.5 243.0 L 921.5 254.0 L 895.0 279.5 Z"/>
  <path d="M 764.0 290.5 L 759.0 289.5 L 734.5 264.0 L 735.5 257.0 L 763.0 231.5 L 791.5 259.0 L 791.5 264.0 L 764.0 290.5 Z"/>
  <path d="M 829.0 325.5 L 822.0 324.5 L 806.5 308.0 L 806.5 303.0 L 824.0 285.5 L 830.0 286.5 L 845.5 303.0 L 845.5 309.0 L 829.0 325.5 Z"/>

  <!-- 左侧竖条：改成真实圆角矩形，圆弧会非常圆润 -->
  <rect x="211.5" y="150.5" width="27" height="310" rx="13.5" ry="13.5"/>
  <rect x="112.5" y="188.5" width="27" height="126" rx="13.5" ry="13.5"/>
  <rect x="261.5" y="189.5" width="27" height="357" rx="13.5" ry="13.5"/>
  <rect x="162.5" y="226.5" width="27" height="150" rx="13.5" ry="13.5"/>
  <rect x="310.5" y="267.5" width="28" height="362" rx="14" ry="14"/>
  <rect x="360.5" y="342.5" width="28" height="371" rx="14" ry="14"/>
  <rect x="410.5" y="406.5" width="28" height="387" rx="14" ry="14"/>
  <rect x="460.5" y="481.5" width="27" height="250" rx="13.5" ry="13.5"/>

  <!-- 右侧斜向块/大斜条（保留原 path） -->
  <path d="M 692.0 381.5 L 683.0 379.5 L 625.0 344.5 L 619.5 338.0 L 621.5 328.0 L 655.5 271.0 L 661.0 266.5 L 668.0 266.5 L 681.0 273.5 L 730.0 303.5 L 734.5 311.0 L 733.5 318.0 L 703.5 369.0 L 692.0 381.5 Z"/>
  <path d="M 796.0 447.5 L 786.0 445.5 L 722.5 405.0 L 723.5 394.0 L 758.5 335.0 L 765.0 329.5 L 777.0 332.5 L 834.0 366.5 L 839.5 373.0 L 839.5 380.0 L 803.5 440.0 L 796.0 447.5 Z"/>
  <path d="M 637.0 476.5 L 626.0 474.5 L 576.0 444.5 L 563.5 433.0 L 568.5 418.0 L 606.0 359.5 L 617.0 361.5 L 665.0 390.5 L 679.5 404.0 L 678.5 412.0 L 664.5 436.0 L 642.5 472.0 L 637.0 476.5 Z"/>
  <path d="M 625.0 735.5 L 617.0 734.5 L 557.0 698.5 L 550.5 691.0 L 550.5 684.0 L 701.5 431.0 L 709.0 425.5 L 715.0 425.5 L 779.0 463.5 L 783.5 470.0 L 783.5 476.0 L 654.5 694.0 L 632.5 729.0 L 625.0 735.5 Z"/>
  <path d="M 581.0 572.5 L 570.0 570.5 L 508.5 531.0 L 510.5 518.0 L 543.5 462.0 L 550.0 455.5 L 560.0 456.5 L 614.0 488.5 L 624.5 500.0 L 622.5 508.0 L 587.5 567.0 L 581.0 572.5 Z"/>
  <path d="M 525.0 667.5 L 514.0 666.5 L 509.5 659.0 L 511.0 557.5 L 559.0 585.5 L 567.5 595.0 L 565.5 604.0 L 531.5 662.0 L 525.0 667.5 Z"/>
  <path d="M 568.0 831.5 L 558.0 828.5 L 500.0 793.5 L 493.5 786.0 L 493.5 779.0 L 536.0 712.5 L 547.0 713.5 L 608.0 750.5 L 612.5 758.0 L 576.5 824.0 L 568.0 831.5 Z"/>
  <path d="M 513.0 924.5 L 502.0 923.5 L 497.5 919.0 L 453.5 855.0 L 454.5 846.0 L 476.5 810.0 L 482.0 806.5 L 488.0 807.5 L 551.0 845.5 L 555.5 852.0 L 552.5 864.0 L 520.5 917.0 L 513.0 924.5 Z"/>

</svg>